<?xml version="1.0" encoding="utf-8"?>
<!-- Generator: Adobe Illustrator 25.2.1, SVG Export Plug-In . SVG Version: 6.00 Build 0)  -->
<svg version="1.1" id="Layer_1" xmlns="http://www.w3.org/2000/svg" xmlns:xlink="http://www.w3.org/1999/xlink" x="0px" y="0px"
	 viewBox="0 0 700 213.3" style="enable-background:new 0 0 700 213.3;" xml:space="preserve">
<path d="M691.1,156.2h-34.6c-2.9,0-5.9,1.4-7.4,4.5l-5.1,8.2c-8.8,13.9-23.5,22.1-39.1,22.1c-17,0-39.7-0.8-62.6-3.7
	c1.4-3.7,2.9-7.4,2.9-11.8c0-1.4,0-2.9-0.8-5.1c-0.8-5.9-3.7-11.1-8.2-15.5c4.5-5.1,7.4-11.8,7.4-18.4c0-1.4,0-2.9-0.8-5.1
	c-0.8-3.7-2.2-7.4-4.5-11.1c2.9-1.4,5.1-2.9,7.4-5.1c4.5-4.5,6.6-9.6,7.4-15.5c16.2,15.5,36.8,19.2,48.7,17.6
	c4.5-0.8,8.2-4.5,8.2-8.8v-0.8c-0.8-4.5-4.5-8.2-9.6-8.2c-1.4,0-31.7,2.2-45.6-28l9.6-1.4c4.5-0.8,8.2-5.1,7.4-9.6
	c-0.8-4.5-5.1-8.2-9.6-7.4l-19.9,2.9c-4.5,0.8-7.4,4.5-7.4,8.8l1.4,30.9c0,2.9-0.8,5.1-2.9,7.4c-2.2,2.2-4.5,2.9-7.4,2.9
	c-5.1,0-10.3-4.5-10.3-10.3l-0.8-45v-0.5c0-11.1,8.2-19.9,18.4-21.3l37.6-5.1c14.7-2.2,30.3,2.9,41.3,12.5L652,71.5
	c1.4,1.4,3.7,2.2,5.9,2.2h33.2c5.1,0,8.8-3.7,8.8-8.8c0-5.1-3.7-8.8-8.8-8.8h-30.3L623.2,23C607.6,9.7,587.8,3.8,567.9,6l-37.6,5.1
	C517,12.6,506,21.4,500.8,32.4l-98.7-17.6c-15.5-2.9-29.5,7.4-32.4,22.9c-2.9,14.7,7.4,29.5,22.9,32.4l56,9.6l-69.2,13.9
	c-7.4,1.4-13.9,5.1-17.6,11.8c-4.5,5.9-5.9,13.3-4.5,20.7c1.4,7.4,5.1,13.9,11.1,17.6c5.9,4.5,13.3,5.9,20.7,4.5l58.9-10.3
	c-0.8,3.7-0.8,6.6,0,10.3c1.4,7.4,5.1,13.9,11.1,17.6c0.8,0.8,2.2,1.4,2.9,1.4c-2.2,5.1-3.7,11.1-2.2,17c2.9,14.7,17,25,32.4,22.9
	l29.5-5.1c1.4,0,2.2-0.8,3.7-0.8c28.7,5.9,58.9,6.6,79.6,6.6c22.1,0,42-11.8,53.8-30.3l2.2-3.7h30.3c5.1,0,8.8-3.7,8.8-8.8
	C699.9,159.9,696.2,156.2,691.1,156.2L691.1,156.2z M395.6,54.5c-5.1-0.8-8.8-5.1-8.8-10.3v-1.4c0.8-5.9,6.6-9.6,11.8-8.2l98.7,17
	v0.8l0.8,19.9L395.6,54.5z M386,131.2c-2.9,0.8-5.1,0-7.4-1.4c-2.2-1.4-3.7-3.7-4.5-6.6c-0.8-2.9,0-5.9,1.4-8.2
	c1.4-2.2,3.7-3.7,6.6-4.5l115-20.7v6.6c0,5.1,1.4,9.6,4.5,13.3L386,131.2z M464.9,146v-1.4c0-2.2,0.8-4.5,1.4-5.9
	c1.4-2.2,3.7-3.7,6.6-4.5l39.7-7.4c5.9-0.8,11.1,2.9,11.8,8.2c0.8,2.9,0,5.1-1.4,7.4c-1.4,2.2-3.7,3.7-6.6,4.5l-39.7,7.4
	c-2.9,0.8-5.1,0-7.4-1.4C467,150.3,465.6,148.1,464.9,146L464.9,146z M525.3,181.2c-1.4,2.2-3.7,3.7-6.6,4.5l-29.5,5.1
	c-2.9,0.8-5.1,0-8.2-1.4c-2.2-1.4-3.7-3.7-4.5-6.6c-0.8-5.9,2.9-11.1,8.2-11.8l29.5-5.1c2.9-0.8,5.1,0,8.2,1.4
	c2.2,1.4,3.7,3.7,4.5,6.6C526.7,176.1,526.7,179.1,525.3,181.2L525.3,181.2z"/>
<path d="M308.6,74.6c2.2-3.7,2.9-8.2,2.9-12.5c0-15.5-12.5-28-28-28h-67.1v-2.9C215.6,16.5,203.9,4.6,189.2,4l-61.8-1.4
	C106,1.7,86,9.9,70.6,24.6L38.3,55.5H8.8c-5.1,0-8.8,3.7-8.8,8.8c0,5.1,3.7,8.8,8.8,8.8H42c2.2,0,4.5-0.8,5.9-2.2l35.4-33.2
	c11.8-11.8,28-17.6,44.2-17l61.8,1.4c5.9,0,10.3,4.5,10.3,10.3c0,2.9-0.8,5.9-2.9,8.2c-2.2,2.2-5.1,3.7-8.2,3.7h-31.7
	c-6.6,0-13.9,0.8-20.7,2.2l-5.9,1.4c-4.5,0.8-7.4,5.9-6.6,10.3c0.8,4.5,5.9,7.4,10.3,6.6l5.9-1.4c2.9-0.8,5.9-0.8,8.8-1.4
	c-13.3,40.5-47.1,36.8-48.7,36.8c-4.5-0.8-8.8,2.9-9.6,7.4v1.4c0,4.5,2.9,8.2,7.4,8.8c0.8,0,53,5.9,69.2-54.5h21.3
	c8.2,0,14.7-2.9,20.7-8.8H284c5.9,0,10.3,4.5,10.3,10.3c0,5.9-4.5,10.3-10.3,10.3h-78.8c-5.1,0-8.8,3.7-8.8,8.8
	c0,5.1,3.7,8.8,8.8,8.8h92.9c5.9,0,10.3,4.5,10.3,10.3s-4.5,10.3-10.3,10.3H197.2c-5.1,0-8.8,3.7-8.8,8.8c0,4.5,3.7,8.8,8.8,8.8
	h86.2c5.9,0,10.3,4.5,10.3,10.3s-4.5,10.3-10.3,10.3h-98.7c-5.1,0-8.8,3.7-8.8,8.8c0,5.1,3.7,8.8,8.8,8.8h62.6
	c5.9,0,10.3,4.5,10.3,10.3c0,5.9-4.5,10.3-10.3,10.3h-42.8c-11.1,0-22.9,0.8-36.8,2.9h-1.4c-26.6,3.7-98,14.7-115-25.8
	c-1.4-5.1-4.5-7.4-8.2-7.4H8.8c-4.5,0-8.8,3.7-8.8,8.8c0,5.1,3.7,8.8,8.8,8.8h29.5c25,46.4,101.7,35.4,131.2,30.9h1.4
	c13.3-2.2,24.3-2.9,34.6-2.9h42.8c15.5,0,28-12.5,28-28c0-3.7-0.8-7.4-2.2-10.3h11.1c15.5,0,28-12.5,28-28c0-4.5-1.4-8.8-2.9-12.5
	c10.3-4.5,17.6-13.9,17.6-25.8C326.4,88.6,319,78.3,308.6,74.6L308.6,74.6z"/>
</svg>
