<?xml version="1.0" encoding="utf-8"?>
<!-- Generator: Adobe Illustrator 25.2.1, SVG Export Plug-In . SVG Version: 6.00 Build 0)  -->
<svg version="1.1" id="Layer_1" xmlns="http://www.w3.org/2000/svg" xmlns:xlink="http://www.w3.org/1999/xlink" x="0px" y="0px"
	 viewBox="0 0 700 700" style="enable-background:new 0 0 700 700;" xml:space="preserve">
<path d="M1269.4,793.9l3.9,31.4c1.7,12.9-2.2,25.2-10.6,34.7l-29.7,33.6c-1.1,1.1-1.7,2.8-1.7,5v28c0,3.9,3.4,7.3,7.3,7.3
	s7.3-3.4,7.3-7.3v-25.2l28-31.9c11.2-12.9,16.2-29.7,14-46.5l-3.9-31.4c-1.1-10.6-7.3-19-15.7-24.1v-21.8c0-10.6-6.2-20.2-16.2-23.5
	c-7.8-2.2-15.1-0.6-20.7,3.4c-4.5-5.6-11.2-9.5-19-9.5s-14.6,3.9-18.5,9.5c-3.9-2.8-8.4-4.5-13.4-4.5c-7.3,0-14,3.4-18.5,9
	c-3.9-2.8-8.4-4.5-14-4.5c-12.9,0-23.5,11.8-23.5,24.6v24.6c0,2.8,0.6,5,1.1,7.3c-5.6,25.2-6.7,52.6-6.7,71.7
	c0,18.5,9.5,35.8,25.8,45.4l3.4,2.2v25.2c0,3.9,3.4,7.3,7.3,7.3s7.3-3.4,7.3-7.3v-29.7c0-2.8-1.1-5-3.4-6.2l-6.2-3.9
	c-11.8-7.3-18.5-19.6-18.5-33c0-15.7,0.6-37,3.9-57.7c2.8,1.7,6.2,2.2,10.1,2.2c5,0,10.1-1.7,14-4.5c4.5,5.6,11.2,9,18.5,9
	c5,0,9.5-1.7,12.9-3.9c1.1,2.2,2.2,3.9,3.9,5.6c3.9,3.4,8.4,5.6,13.4,6.2c-12.9,13.4-16.2,30.8-15.1,40.9c0.6,3.9,3.4,6.7,7.3,6.7
	h0.6c3.9-0.6,6.7-3.9,6.7-7.8c0-1.1-2.2-26.3,24.1-38.6l1.1,8.4c0.6,3.9,4.5,6.7,8.4,6.2c3.9-0.6,6.7-4.5,6.2-8.4l-2.2-16.8
	c-0.6-3.9-3.9-6.2-7.8-6.2l-25.8,1.1c-2.2,0-4.5-0.6-6.2-2.2s-2.8-3.9-2.8-6.2c0-4.5,3.9-8.4,8.4-8.4l38.1-0.6
	C1259.9,778.2,1268.3,784.9,1269.4,793.9L1269.4,793.9z M1253.2,745.1v18.5h-2.8l-15.1,0.6v-18.5c0-5,3.9-9,9-9
	C1249.3,736.2,1253.2,740.7,1253.2,745.1L1253.2,745.1z M1212.3,731.1c5,0,9,3.9,9,9v24.1h-8.4c-3.4,0-6.2,1.1-9.5,2.2v-26.3
	C1203.9,735.1,1207.8,731.1,1212.3,731.1L1212.3,731.1z M1139.5,774.8v-25.2c0-5,3.9-9,9-9c5,0,9,3.9,9,9v25.2c0,5-3.9,9-9,9
	S1139.5,779.9,1139.5,774.8z M1188.8,779.3c0,5-3.9,9-9,9s-9-3.9-9-9v-34.2c0-5,3.9-9,9-9c5,0,9,3.9,9,9V779.3z"/>
<path d="M-155.7,329.2l-57.7-10.6l47-8.4c12.9-2.2,21.3-14.6,19-26.9c-2.2-12.9-14.6-21.3-27.4-19l-83.4,14.6
	c-4.5-9.5-14-16.8-25.2-17.9l-31.4-3.9c-16.8-2.2-33.6,2.8-46.5,14l-31.9,28h-25.2c-3.9,0-7.3,3.4-7.3,7.3s3.4,7.3,7.3,7.3h28
	c1.7,0,3.4-0.6,5-1.7l33.6-29.7c9.5-8.4,22.4-12.3,34.7-10.6l31.4,3.9c9,1.1,15.7,9,15.7,17.9v0.6l-0.6,38.1c0,4.5-3.9,8.4-8.4,8.4
	c-2.2,0-4.5-1.1-6.2-2.8c-1.7-1.7-2.2-3.9-2.2-6.2l1.1-25.8c0-3.9-2.8-7.3-6.2-7.8l-16.8-2.2c-3.9-0.6-7.8,2.2-8.4,6.2
	s2.2,7.8,6.2,8.4l8.4,1.1c-12.3,25.8-37.5,24.1-38.6,24.1c-3.9-0.6-7.8,2.8-7.8,6.7v0.6c0,3.9,2.8,6.7,6.7,7.3
	c10.1,1.1,27.4-1.7,40.9-15.1c0.6,5,2.8,9.5,6.2,12.9c1.7,1.7,3.9,3.4,6.2,4.5c-1.7,2.8-3.4,5.6-3.9,9c0,1.7-0.6,2.8-0.6,3.9
	c0,6.2,2.2,11.8,6.2,15.7c-3.4,3.4-6.2,7.8-6.7,12.9c0,1.1-0.6,2.8-0.6,3.9c0,3.4,0.6,6.7,2.2,10.1c-19,2.8-38.6,3.4-52.6,3.4
	c-13.4,0-25.8-7.3-33-18.5l-4.5-6.7c-1.1-2.2-3.9-3.4-6.2-3.4h-29.1c-3.9,0-7.3,3.4-7.3,7.3s3.4,7.3,7.3,7.3h25.2l2.2,3.4
	c10.1,15.7,26.9,25.2,45.4,25.8c17.4,0,43.1-0.6,67.2-5.6c1.1,0.6,1.7,0.6,2.8,0.6l24.6,4.5c12.9,2.2,24.6-6.2,27.4-19
	c1.1-5,0-10.1-2.2-14.6c1.1-0.6,1.7-1.1,2.8-1.7c5-3.4,8.4-9,9.5-15.1c0.6-2.8,0.6-6.2,0-9l49.3,8.4c6.2,1.1,12.3,0,17.4-3.9
	c5-3.4,8.4-9,9.5-15.1s0-12.3-3.9-17.4C-144,333.7-149.6,330.4-155.7,329.2L-155.7,329.2z M-254.8,293.4l82.9-14.6
	c4.5-1.1,9.5,2.2,10.1,7.3v1.7c0,3.9-2.8,7.8-7.3,8.4l-85.7,15.1l0.6-16.8C-254.8,294-254.8,293.4-254.8,293.4L-254.8,293.4z
	 M-237.5,403.7c-0.6,2.2-1.7,4.5-3.4,5.6s-4.5,1.7-6.7,1.7l-24.6-4.5c-2.2-0.6-4.5-1.7-5.6-3.4c-1.1-1.7-1.7-4.5-1.7-6.7
	c0.6-2.2,1.7-4.5,3.4-5.6c1.7-1.1,4.5-1.7,6.7-1.7l24.6,4.5C-240.3,394.2-236.9,399.2-237.5,403.7L-237.5,403.7z M-227.4,372.9
	c-0.6,2.2-1.7,4.5-3.4,5.6s-4.5,1.7-6.7,1.7l-33.6-6.2c-2.2-0.6-4.5-1.7-5.6-3.4c-1.1-1.7-1.7-4.5-1.7-6.7c0.6-4.5,5.6-7.8,10.1-7.3
	l33.6,6.2c2.2,0.6,4.5,1.7,5.6,3.4s1.7,3.4,1.7,5L-227.4,372.9L-227.4,372.9z M-154.6,359.5c-1.7,1.1-4.5,1.7-6.7,1.7l-98-17.4
	c2.2-3.4,3.4-7.3,3.4-11.2V327l97.4,17.4c2.2,0.6,4.5,1.7,5.6,3.4s1.7,4.5,1.7,6.7C-151.3,356.1-152.9,357.8-154.6,359.5
	L-154.6,359.5z"/>
<path d="M281.6,41c-7.9-4.8-17.4-6.2-26.7-6.2c-33.1,0-59.8,26.7-59.8,59.8v143.3h-6.2c-31.5,1.7-56.7,26.7-58.1,58.1l-3.1,132
	c-1.7,45.5,15.7,88.2,47.2,121.1l66,69.1v62.9c0,11,7.9,18.8,18.8,18.8c11,0,18.8-7.9,18.8-18.8v-70.8c0-4.8-1.7-9.6-4.8-12.6
	l-70.8-75.6c-25.3-25.3-37.6-59.8-36.2-94.4l3.1-132c0-12.6,9.6-21.9,21.9-21.9c6.2,0,12.6,1.7,17.4,6.2c4.8,4.8,7.9,11,7.9,17.4
	v67.7c0,14,1.7,29.8,4.8,44.1l3.1,12.6c1.7,9.6,12.6,15.7,21.9,14c9.6-1.7,15.7-12.6,14-21.9l-3.1-12.6c-1.7-6.2-1.7-12.6-3.1-18.8
	c86.5,28.4,78.7,100.6,78.7,103.9c-1.7,9.6,6.2,18.8,15.7,20.5h3.1c9.6,0,17.4-6.2,18.8-15.7c0-1.7,12.6-113.2-116.3-147.8V298
	c0-17.4-6.2-31.5-18.8-44.1V93.5c0-12.6,9.6-21.9,21.9-21.9c12.6,0,21.9,9.6,21.9,21.9v168.3c0,11,7.9,18.8,18.8,18.8
	c11,0,18.8-7.9,18.8-18.8V63.5c0-12.6,9.6-21.9,21.9-21.9s21.9,9.6,21.9,21.9v215.4c0,11,7.9,18.8,18.8,18.8
	c9.6,0,18.8-7.9,18.8-18.8V94.4c0-12.6,9.6-21.9,21.9-21.9s21.9,9.6,21.9,21.9v210.7c0,11,7.9,18.8,18.8,18.8
	c11,0,18.8-7.9,18.8-18.8V171.3c0-12.6,9.6-21.9,21.9-21.9c12.6,0,21.9,9.6,21.9,21.9v91.3c0,23.6,1.7,48.9,6.2,78.7v3.1
	c7.9,56.7,31.5,209.3-55.1,245.5c-11,3.1-15.7,9.6-15.7,17.4v73.9c0,9.6,7.9,18.8,18.8,18.8c11,0,18.8-7.9,18.8-18.8v-62.9
	c99.2-53.4,75.6-217.1,66-280.1v-3.1c-4.8-28.4-6.2-52-6.2-73.9v-91.3c0-33.1-26.7-59.8-59.8-59.8c-7.9,0-15.7,1.7-21.9,4.8V91.3
	c0-33.1-26.7-59.8-59.8-59.8c-9.6,0-18.8,3.1-26.7,6.2C379,15.7,358.8,0,333.5,0C311.3,3.1,289.4,18.8,281.6,41L281.6,41z"/>
</svg>
