<?xml version="1.0" encoding="utf-8"?>
<!-- Generator: Adobe Illustrator 25.2.1, SVG Export Plug-In . SVG Version: 6.00 Build 0)  -->
<svg version="1.1" id="Layer_1" xmlns="http://www.w3.org/2000/svg" xmlns:xlink="http://www.w3.org/1999/xlink" x="0px" y="0px"
	 viewBox="0 0 1000 1000" style="enable-background:new 0 0 1000 1000;" xml:space="preserve">
<style type="text/css">
	.st0{fill:#FFFFFF;}
</style>
<g>
	<g>
		<path d="M503.8,419.2c-6,13.2-12,26.3-18,39.3c9,1.6,13.4,2.3,22.3,4.1C506.6,448.3,505.3,433.8,503.8,419.2z"/>
		<path d="M995.3,444.4C980.2,316.3,916.8,226,792.8,180.8c-32.2-11.6-63.8-25.2-96-36.4c-9.1-3.2-20.2-2.8-30.1-1.6
			c-26.9,3.4-53.7,8.2-80.4,12.4c-65.3-1.2-129.3,4.9-189.7,30.7c-38.9,16.6-63.6,43.4-72.5,86.6c-14.6,71.7-33,142.6-48.9,214.1
			c-3.9,17.6-11.4,28.4-28.8,35.8c-62.8,26.5-124.7,54.5-186.8,82.2c-48.8,21.8-68.9,60.8-52,100.1c15.9,37,55.7,50.5,104.1,29.1
			c40.1-17.7,78.1-41,115.5-64.2c14.5-9,25.6-11.6,39.9-2.2c45.2,29.9,90.6,59.8,136.3,89c43.4,27.7,85.9,56.9,131.3,81
			c55.6,29.6,114,27.2,165.1-9.1c44.7-31.7,89.9-66.1,124.3-107.8c35-42.7,71.4-64.5,125.7-54.9c20.1,3.5,27.4-7.2,31.2-25.2
			C994.9,576,1003.1,511,995.3,444.4z M85.5,728.7c-36.7,5.3-62.1-10.5-66.9-40.8c-5.3-33.1,11.8-56.5,49.9-62.8
			c56.7-9.3,108.4,10.6,168,29.9C185.4,689,141.3,720.6,85.5,728.7z M552.4,468.1c1.4-8.4,2.2-12.6,3.7-20.9
			c2.2-13.6,7.3-27.7,17.9-37.1c8.9-7.9,21.5-9.9,32.7-7.9c9.6,1.7,22.2,9.3,26.5,18.7c5.5,12.1,6,26.3,4,39.3
			c-9.2-3-13.7-4.4-23-7.2c1.6-9.5,1.6-16.4,0-20.6c-1.6-4.2-5.4-7-11.5-8.5c-6.2-1.6-11-0.1-14.5,4.1c-3.4,4.2-6.2,11.9-8.4,22.8
			c-1.8,9.6-2.7,14.5-4.4,24.3c-2.3,12.7-2.7,21.8-1.1,27.5c1.6,5.7,5.3,9.6,11.3,11.9c5.8,2.3,10.1,2.2,13-0.3
			c2.9-2.5,5.3-8.3,7.3-17.3c8.9,3.3,13.3,5.1,22.2,8.6c-2.6,11.5-7.4,24.4-17.4,31.1c-7.7,5.1-17.4,4.7-29.1-0.3
			c-11.4-4.9-21-13.9-25.9-25.4C549.9,497.6,549.8,482.3,552.4,468.1z M519.7,389.8c7.3,42.2,12.2,84.7,17.1,127.2
			c-9.5-3.3-14.3-5-24.3-8c-1-10.1-1.6-15.2-2.4-25.4c-10.9-2.7-21.7-5-32.7-7.1c-4,8.5-6,12.7-9.9,20.7
			c-10.2-2.3-15.3-3.3-25.5-5.3c19.4-34.1,37.4-69,55.3-104C506.3,388.7,510.9,389,519.7,389.8z M350.2,390.9
			c12.4-2.5,17.7-3.3,28.4-4.4c1.7,23.3,0.9,46.5,2.3,69.8c12.3-23.4,24.1-47.1,35.4-70.9c11.1,0.2,17.4,0.4,30.1,0.9
			c-5.3,34.6-11.9,68.8-17.2,103.4c-9.5-1.7-14.2-2.4-23.7-3.9c1.3-9.8,2.2-15.2,4.2-26.3c3.3-14.4,6.8-28.9,10.1-43.3
			c-11.5,22.5-23.3,44.8-35.6,66.8c-6.5-0.8-9.8-1.1-16.3-1.7c-5.1-21.7-5.4-44.2-5.7-66.5c-3.5,13.6-7.1,27.3-10.2,41
			c-2.9,10.3-4.1,15.3-5.7,23.8c-9.6-0.6-14.4-0.8-24.2-1C328.5,448.6,340.5,420,350.2,390.9z M740.5,619.4
			c-70.2-24.7-140.8-48.3-210.2-75.1c-79.7-30.8-159.8-55.7-252.9-36.1l16-9.4c56.2-12.3,151.7,3.9,243.1,35.2
			c69.6,23.8,150.8,53.2,209.8,78.2c87.3,37,166.2,42.9,185.3,43.7C864.6,654,802.8,641.4,740.5,619.4z"/>
	</g>
	<g>
		<path class="st0" d="M467.5,497.4c3.9-7.9,5.9-12.1,9.9-20.7c11,2,22,4.4,32.7,7.1c1,10.2,1.4,15.3,2.4,25.4
			c9.9,3,14.6,4.5,24.3,8c-4.9-42.6-9.9-85-17.1-127.2c-8.9-0.8-13.4-1.1-22.4-1.7c-18,34.9-36,69.7-55.3,104
			C452.2,494.1,457.3,495.1,467.5,497.4z M503.8,419.2c1.6,14.5,2.9,29,4.3,43.6c-8.9-1.8-13.3-2.7-22.3-4.1
			C491.8,445.5,497.8,432.4,503.8,419.2z"/>
		<path class="st0" d="M581.5,536.4c11.5,5,21.4,5.4,29.1,0.3c10-6.6,14.9-19.6,17.4-31.1c-8.9-3.5-13.3-5.3-22.2-8.6
			c-2,9-4.4,14.7-7.3,17.3c-2.9,2.5-7.1,2.7-13,0.3c-5.9-2.3-9.6-6.3-11.3-11.9c-1.6-5.7-1.2-14.7,1.1-27.5
			c1.8-9.6,2.7-14.5,4.4-24.3c2.2-11.1,5-18.6,8.4-22.8c3.4-4.2,8.3-5.7,14.5-4.1c6.1,1.4,10,4.3,11.5,8.5c1.6,4.2,1.6,11.1,0,20.6
			c9.1,2.8,13.7,4.2,23,7.2c2-13.1,1.6-27.3-4-39.3c-4.3-9.4-16.7-17.1-26.5-18.7c-11.2-2-23.8,0-32.7,7.9
			c-10.5,9.3-15.6,23.4-17.9,37.1c-1.4,8.4-2.2,12.6-3.7,20.9c-2.7,14.2-2.6,29.4,3.2,42.8C560.5,522.5,570.1,531.4,581.5,536.4z"/>
		<path class="st0" d="M351.9,455.9c3.1-13.7,6.7-27.4,10.2-41c0.2,22.2,0.6,44.8,5.7,66.5c6.5,0.6,9.8,0.9,16.3,1.7
			c12.4-22.1,24.1-44.3,35.6-66.8c-3.3,14.4-6.8,28.8-10.1,43.3c-1.9,11.1-2.9,16.5-4.2,26.3c9.5,1.4,14.2,2.2,23.7,3.9
			c5.3-34.6,11.9-68.8,17.2-103.4c-12.6-0.3-19-0.7-30.1-0.9c-11.3,23.9-23.1,47.5-35.4,70.9c-1.4-23.3-0.7-46.7-2.3-69.8
			c-10.6,1-16.1,1.8-28.4,4.4c-9.5,29.1-21.6,57.7-28.2,87.8c9.6,0.2,14.5,0.4,24.2,1C347.7,471.2,349.1,466.2,351.9,455.9z"/>
		<path class="st0" d="M68.5,625.2c-38.1,6.3-55.2,29.7-49.9,62.8c4.9,30.3,30.2,46.1,66.9,40.8c55.8-8.1,99.9-39.7,151-73.6
			C177,635.8,125.2,615.8,68.5,625.2z"/>
		<path class="st0" d="M746.2,612.1c-59-25-140-54.3-209.8-78.2c-91.4-31.3-186.8-47.5-243.1-35.2l-16,9.4
			c93.1-19.5,173.2,5.3,252.9,36.1c69.4,26.8,140,50.4,210.2,75.1c62.3,21.9,124.2,34.6,190.8,36.4
			C912.4,655,833.4,649.1,746.2,612.1z"/>
	</g>
</g>
</svg>
