<?xml version="1.0" encoding="utf-8"?>
<!-- Generator: Adobe Illustrator 25.2.1, SVG Export Plug-In . SVG Version: 6.00 Build 0)  -->
<svg version="1.1" id="Layer_1" xmlns="http://www.w3.org/2000/svg" xmlns:xlink="http://www.w3.org/1999/xlink" x="0px" y="0px"
	 viewBox="0 0 200 200" style="enable-background:new 0 0 200 200;" xml:space="preserve">
<style type="text/css">
	.st0{fill:#FFFFFF;}
</style>
<g>
	<g>
		<path d="M100.8,83.9c-1.2,2.6-2.4,5.3-3.6,7.8c1.8,0.3,2.7,0.5,4.5,0.8C101.3,89.7,101.1,86.8,100.8,83.9z"/>
		<path d="M198.9,88.9c-3-25.6-15.7-43.6-40.4-52.6c-6.4-2.3-12.7-5-19.2-7.3c-1.8-0.6-4-0.6-6-0.3c-5.4,0.7-10.7,1.6-16.1,2.5
			c-13-0.2-25.8,1-37.9,6.1c-7.8,3.3-12.7,8.7-14.5,17.3c-2.9,14.3-6.6,28.5-9.8,42.8c-0.8,3.5-2.3,5.7-5.8,7.1
			c-12.5,5.3-24.9,10.9-37.3,16.4c-9.7,4.4-13.8,12.1-10.4,20c3.2,7.4,11.1,10.1,20.8,5.8c8-3.5,15.6-8.2,23.1-12.8
			c2.9-1.8,5.1-2.3,8-0.4c9,6,18.1,11.9,27.2,17.8c8.7,5.5,17.2,11.4,26.2,16.2c11.1,5.9,22.8,5.4,33-1.8c8.9-6.3,18-13.2,24.8-21.5
			c7-8.5,14.3-12.9,25.1-11c4,0.7,5.5-1.4,6.2-5C198.8,115.2,200.5,102.2,198.9,88.9z M17.2,145.7c-7.3,1.1-12.4-2.1-13.4-8.1
			c-1.1-6.6,2.4-11.3,10-12.5c11.3-1.9,21.6,2.1,33.5,6C37.2,137.8,28.4,144.1,17.2,145.7z M110.5,93.7c0.3-1.7,0.4-2.5,0.7-4.2
			c0.4-2.7,1.5-5.5,3.6-7.4c1.8-1.6,4.3-2,6.5-1.6c1.9,0.3,4.4,1.9,5.3,3.7c1.1,2.4,1.2,5.3,0.8,7.8c-1.8-0.6-2.7-0.9-4.6-1.4
			c0.3-1.9,0.3-3.3,0-4.1c-0.3-0.8-1.1-1.4-2.3-1.7c-1.2-0.3-2.2,0-2.9,0.8c-0.7,0.8-1.2,2.4-1.7,4.6c-0.4,1.9-0.5,2.9-0.9,4.9
			c-0.5,2.5-0.5,4.4-0.2,5.5c0.3,1.1,1.1,1.9,2.3,2.4c1.2,0.5,2,0.4,2.6-0.1c0.6-0.5,1.1-1.7,1.5-3.5c1.8,0.7,2.7,1,4.4,1.7
			c-0.5,2.3-1.5,4.9-3.5,6.2c-1.5,1-3.5,0.9-5.8-0.1c-2.3-1-4.2-2.8-5.2-5.1C110,99.6,109.9,96.5,110.5,93.7z M103.9,78
			c1.5,8.4,2.4,16.9,3.4,25.4c-1.9-0.7-2.9-1-4.9-1.6c-0.2-2-0.3-3-0.5-5.1c-2.2-0.5-4.3-1-6.5-1.4c-0.8,1.7-1.2,2.5-2,4.1
			c-2-0.5-3.1-0.7-5.1-1.1c3.9-6.8,7.5-13.8,11-20.8C101.3,77.8,102.2,77.9,103.9,78z M70.1,78.2c2.5-0.5,3.5-0.7,5.7-0.9
			c0.3,4.7,0.2,9.3,0.5,13.9c2.5-4.7,4.8-9.4,7.1-14.2c2.2,0,3.5,0.1,6,0.2c-1.1,6.9-2.4,13.7-3.4,20.6c-1.9-0.3-2.8-0.5-4.7-0.8
			c0.3-2,0.4-3,0.8-5.3c0.7-2.9,1.4-5.8,2-8.6c-2.3,4.5-4.7,8.9-7.1,13.3c-1.3-0.2-2-0.2-3.3-0.3c-1-4.3-1.1-8.8-1.1-13.3
			c-0.7,2.7-1.4,5.5-2,8.2c-0.6,2.1-0.8,3.1-1.1,4.8c-1.9-0.1-2.9-0.2-4.8-0.2C65.8,89.8,68.1,84.1,70.1,78.2z M148,123.9
			c-14-4.9-28.1-9.6-42-15c-15.9-6.2-31.9-11.1-50.5-7.2l3.2-1.9c11.2-2.5,30.3,0.8,48.5,7c13.9,4.8,30.1,10.6,41.9,15.6
			c17.4,7.4,33.2,8.6,37,8.7C172.8,130.8,160.5,128.3,148,123.9z"/>
	</g>
	<g>
		<path class="st0" d="M93.5,99.5c0.8-1.6,1.2-2.4,2-4.1c2.2,0.4,4.4,0.9,6.5,1.4c0.2,2,0.3,3.1,0.5,5.1c2,0.6,2.9,0.9,4.9,1.6
			c-1-8.5-2-17-3.4-25.4c-1.8-0.2-2.7-0.2-4.5-0.3c-3.6,7-7.2,13.9-11,20.8C90.5,98.9,91.5,99.1,93.5,99.5z M100.8,83.9
			c0.3,2.9,0.6,5.8,0.9,8.7c-1.8-0.4-2.7-0.5-4.5-0.8C98.4,89.2,99.6,86.5,100.8,83.9z"/>
		<path class="st0" d="M116.3,107.3c2.3,1,4.3,1.1,5.8,0.1c2-1.3,3-3.9,3.5-6.2c-1.8-0.7-2.7-1.1-4.4-1.7c-0.4,1.8-0.9,2.9-1.5,3.5
			c-0.6,0.5-1.4,0.5-2.6,0.1c-1.2-0.5-1.9-1.3-2.3-2.4c-0.3-1.1-0.2-2.9,0.2-5.5c0.4-1.9,0.5-2.9,0.9-4.9c0.4-2.2,1-3.7,1.7-4.6
			c0.7-0.8,1.7-1.1,2.9-0.8c1.2,0.3,2,0.9,2.3,1.7c0.3,0.8,0.3,2.2,0,4.1c1.8,0.6,2.7,0.8,4.6,1.4c0.4-2.6,0.3-5.5-0.8-7.8
			c-0.9-1.9-3.3-3.4-5.3-3.7c-2.2-0.4-4.8,0-6.5,1.6c-2.1,1.9-3.1,4.7-3.6,7.4c-0.3,1.7-0.4,2.5-0.7,4.2c-0.5,2.8-0.5,5.9,0.6,8.5
			C112.1,104.5,114,106.3,116.3,107.3z"/>
		<path class="st0" d="M70.4,91.2c0.6-2.7,1.3-5.5,2-8.2c0,4.4,0.1,8.9,1.1,13.3c1.3,0.1,2,0.2,3.3,0.3c2.5-4.4,4.8-8.8,7.1-13.3
			c-0.7,2.9-1.4,5.8-2,8.6c-0.4,2.2-0.6,3.3-0.8,5.3c1.9,0.3,2.8,0.4,4.7,0.8c1.1-6.9,2.4-13.7,3.4-20.6c-2.5-0.1-3.8-0.1-6-0.2
			c-2.3,4.8-4.6,9.5-7.1,14.2c-0.3-4.7-0.1-9.3-0.5-13.9c-2.1,0.2-3.2,0.4-5.7,0.9c-1.9,5.8-4.3,11.5-5.6,17.5
			c1.9,0,2.9,0.1,4.8,0.2C69.6,94.3,69.9,93.3,70.4,91.2z"/>
		<path class="st0" d="M13.8,125c-7.6,1.3-11,5.9-10,12.5c1,6.1,6,9.2,13.4,8.1c11.1-1.6,19.9-7.9,30.2-14.7
			C35.5,127.1,25.2,123.2,13.8,125z"/>
		<path class="st0" d="M149.2,122.4c-11.8-5-28-10.8-41.9-15.6c-18.3-6.2-37.3-9.5-48.5-7l-3.2,1.9c18.6-3.9,34.6,1.1,50.5,7.2
			c13.9,5.4,28,10.1,42,15c12.4,4.4,24.8,6.9,38.1,7.3C182.3,131,166.6,129.8,149.2,122.4z"/>
	</g>
</g>
</svg>
