<?xml version="1.0" encoding="utf-8"?>
<!-- Generator: Adobe Illustrator 25.2.1, SVG Export Plug-In . SVG Version: 6.00 Build 0)  -->
<svg version="1.1" id="Layer_1" xmlns="http://www.w3.org/2000/svg" xmlns:xlink="http://www.w3.org/1999/xlink" x="0px" y="0px"
	 viewBox="0 0 700 700" style="enable-background:new 0 0 700 700;" xml:space="preserve">
<path d="M561.3,250L573.8,351c5.5,41.5-7.1,81-34.1,111.5l-95.5,108c-3.5,3.5-5.5,9-5.5,16.1v90c0,12.5,10.9,23.5,23.5,23.5
	c12.5,0,23.5-10.9,23.5-23.5v-81l90-102.5c36-41.5,52.1-95.5,45-149.4l-12.5-100.9c-3.5-34.1-23.5-61.1-50.5-77.5V95.1
	c0-34.1-19.9-64.9-52.1-75.5c-25.1-7.1-48.5-1.9-66.5,10.9c-14.5-18-36-30.5-61.1-30.5c-25.1,0-46.9,12.5-59.5,30.5
	c-12.5-9-27-14.5-43.1-14.5c-23.5,0-45,10.9-59.5,28.9c-12.5-9-27-14.5-45-14.5c-41.5,0-75.5,37.9-75.5,79.1v79.1
	c0,9,1.9,16.1,3.5,23.5c-18,81-21.5,169.1-21.5,230.4c0,59.5,30.5,115.1,82.9,145.9l10.9,7.1v81c0,12.5,10.9,23.5,23.5,23.5
	c12.5,0,23.5-10.9,23.5-23.5v-95.1c0-9-3.5-16.1-10.9-19.9l-19.9-12.5c-37.9-23.5-59.5-63-59.5-106.1c0-50.5,1.9-118.9,12.5-185.4
	c9,5.5,19.9,7.1,32.5,7.1c16.1,0,32.5-5.5,45-14.5c14.5,18,36,28.9,59.5,28.9c16.1,0,30.5-5.5,41.5-12.5c3.5,7.1,7.1,12.5,12.5,18
	c12.5,10.9,27,18,43.1,19.9c-41.5,43.1-52.1,99-48.5,131.5c1.9,12.5,10.9,21.5,23.5,21.5h1.9c12.5-1.9,21.5-12.5,21.5-25.1
	c0-3.5-7.1-84.5,77.5-124.1l3.5,27c1.9,12.5,14.5,21.5,27,19.9c12.5-1.9,21.5-14.5,19.9-27l-7.1-54c-1.9-12.5-12.5-19.9-25.1-19.9
	l-82.9,3.5c-7.1,0-14.5-1.9-19.9-7.1c-5.5-5.5-9-12.5-9-19.9c0-14.5,12.5-27,27-27l122.5-1.9C530.8,199.6,557.8,221.4,561.3,250
	L561.3,250z M509.2,93.5V153h-9l-48.5,1.9V95.5c0-16.1,12.5-28.9,28.9-28.9C496.7,64.6,509.2,79.1,509.2,93.5L509.2,93.5z
	 M377.8,48.5c16.1,0,28.9,12.5,28.9,28.9v77.5h-27c-10.9,0-19.9,3.5-30.5,7.1V77.5C350.8,61.1,363.3,48.5,377.8,48.5L377.8,48.5z
	 M143.8,189v-81c0-16.1,12.5-28.9,28.9-28.9s28.9,12.5,28.9,28.9v81c0,16.1-12.5,28.9-28.9,28.9C156.3,217.6,143.8,205.1,143.8,189z
	 M302.3,203.4c0,16.1-12.5,28.9-28.9,28.9c-16.1,0-28.9-12.5-28.9-28.9V93.5c0-16.1,12.5-28.9,28.9-28.9c16.1,0,28.9,12.5,28.9,28.9
	V203.4z"/>
<path d="M-155.7,329.2l-57.7-10.6l47-8.4c12.9-2.2,21.3-14.6,19-26.9c-2.2-12.9-14.6-21.3-27.4-19l-83.4,14.6
	c-4.5-9.5-14-16.8-25.2-17.9l-31.4-3.9c-16.8-2.2-33.6,2.8-46.5,14l-31.9,28h-25.2c-3.9,0-7.3,3.4-7.3,7.3s3.4,7.3,7.3,7.3h28
	c1.7,0,3.4-0.6,5-1.7l33.6-29.7c9.5-8.4,22.4-12.3,34.7-10.6l31.4,3.9c9,1.1,15.7,9,15.7,17.9v0.6l-0.6,38.1c0,4.5-3.9,8.4-8.4,8.4
	c-2.2,0-4.5-1.1-6.2-2.8c-1.7-1.7-2.2-3.9-2.2-6.2l1.1-25.8c0-3.9-2.8-7.3-6.2-7.8l-16.8-2.2c-3.9-0.6-7.8,2.2-8.4,6.2
	s2.2,7.8,6.2,8.4l8.4,1.1c-12.3,25.8-37.5,24.1-38.6,24.1c-3.9-0.6-7.8,2.8-7.8,6.7v0.6c0,3.9,2.8,6.7,6.7,7.3
	c10.1,1.1,27.4-1.7,40.9-15.1c0.6,5,2.8,9.5,6.2,12.9c1.7,1.7,3.9,3.4,6.2,4.5c-1.7,2.8-3.4,5.6-3.9,9c0,1.7-0.6,2.8-0.6,3.9
	c0,6.2,2.2,11.8,6.2,15.7c-3.4,3.4-6.2,7.8-6.7,12.9c0,1.1-0.6,2.8-0.6,3.9c0,3.4,0.6,6.7,2.2,10.1c-19,2.8-38.6,3.4-52.6,3.4
	c-13.4,0-25.8-7.3-33-18.5l-4.5-6.7c-1.1-2.2-3.9-3.4-6.2-3.4h-29.1c-3.9,0-7.3,3.4-7.3,7.3s3.4,7.3,7.3,7.3h25.2l2.2,3.4
	c10.1,15.7,26.9,25.2,45.4,25.8c17.4,0,43.1-0.6,67.2-5.6c1.1,0.6,1.7,0.6,2.8,0.6l24.6,4.5c12.9,2.2,24.6-6.2,27.4-19
	c1.1-5,0-10.1-2.2-14.6c1.1-0.6,1.7-1.1,2.8-1.7c5-3.4,8.4-9,9.5-15.1c0.6-2.8,0.6-6.2,0-9l49.3,8.4c6.2,1.1,12.3,0,17.4-3.9
	c5-3.4,8.4-9,9.5-15.1s0-12.3-3.9-17.4C-144,333.7-149.6,330.4-155.7,329.2L-155.7,329.2z M-254.8,293.4l82.9-14.6
	c4.5-1.1,9.5,2.2,10.1,7.3v1.7c0,3.9-2.8,7.8-7.3,8.4l-85.7,15.1l0.6-16.8C-254.8,294-254.8,293.4-254.8,293.4L-254.8,293.4z
	 M-237.5,403.7c-0.6,2.2-1.7,4.5-3.4,5.6s-4.5,1.7-6.7,1.7l-24.6-4.5c-2.2-0.6-4.5-1.7-5.6-3.4c-1.1-1.7-1.7-4.5-1.7-6.7
	c0.6-2.2,1.7-4.5,3.4-5.6c1.7-1.1,4.5-1.7,6.7-1.7l24.6,4.5C-240.3,394.2-236.9,399.2-237.5,403.7L-237.5,403.7z M-227.4,372.9
	c-0.6,2.2-1.7,4.5-3.4,5.6s-4.5,1.7-6.7,1.7l-33.6-6.2c-2.2-0.6-4.5-1.7-5.6-3.4c-1.1-1.7-1.7-4.5-1.7-6.7c0.6-4.5,5.6-7.8,10.1-7.3
	l33.6,6.2c2.2,0.6,4.5,1.7,5.6,3.4s1.7,3.4,1.7,5L-227.4,372.9L-227.4,372.9z M-154.6,359.5c-1.7,1.1-4.5,1.7-6.7,1.7l-98-17.4
	c2.2-3.4,3.4-7.3,3.4-11.2V327l97.4,17.4c2.2,0.6,4.5,1.7,5.6,3.4s1.7,4.5,1.7,6.7C-151.3,356.1-152.9,357.8-154.6,359.5
	L-154.6,359.5z"/>
</svg>
