<?xml version="1.0" encoding="utf-8"?>
<!-- Generator: Adobe Illustrator 25.2.1, SVG Export Plug-In . SVG Version: 6.00 Build 0)  -->
<svg version="1.1" id="Layer_1" xmlns="http://www.w3.org/2000/svg" xmlns:xlink="http://www.w3.org/1999/xlink" x="0px" y="0px"
	 viewBox="0 0 700 244.5" style="enable-background:new 0 0 700 244.5;" xml:space="preserve">
<path d="M295.9,112.4c0-10.3-5.1-19.9-13.3-25.8c5.1-7.4,7.4-17.6,4.5-28c-4.5-13.3-17.6-22.1-31.7-22.1h-29.5
	c-6.6-11.8-18.4-19.9-32.4-21.3l-42.7-5.9c-22.9-2.9-45.6,4.5-63.4,19.2L44.7,66.1H10.8c-5.1,0-10.3,4.5-10.3,10.3
	c0,5.9,4.5,10.3,10.3,10.3h37.6c2.2,0,4.5-0.8,6.6-2.2l45.6-40.5c13.3-11.8,30.2-17,47.1-14.7l42.7,5.9c12.5,1.4,21.3,12.5,21.3,25
	l-0.8,51.5c0,6.6-5.1,11-11.8,11c-2.9,0-5.9-1.4-8.2-3.7c-2.2-2.2-2.9-5.1-2.9-8.8l1.4-35.4c0-5.1-3.7-9.6-8.2-10.3l-22.1-3.7
	c-5.1-0.8-10.3,2.9-11,8.2c-0.8,5.3,2.9,10.3,8.2,11l11,1.4c-16.2,35.4-50.8,32.4-52.3,32.4c-5.1-0.8-10.3,3.7-11,8.8v0.8
	c0,5.1,3.7,9.6,8.8,9.6c13.9,1.4,37.6-2.2,56-20.6c0.8,6.6,3.7,13.3,8.8,17.6c2.2,2.2,4.5,3.7,7.4,5.9c-2.9,5.1-5.1,11-5.1,17.6
	c0,10.3,5.1,19.2,12.5,25c-3.7,5.1-5.9,11.8-5.9,18.4c0,5.1,1.4,9.6,2.9,13.3c-28,5.1-57.5,5.9-78.8,5.1c-18.4,0-35.4-9.6-45-25
	l-5.9-9.6c-1.4-2.9-5.1-4.5-8.2-4.5H10.3c-5.1,0-10.3,4.5-10.3,10.3s4.5,10.3,10.3,10.3h34.6l2.9,4.5c13.3,21.3,36.8,34.6,61.8,34.6
	c25.8,0,63.4-0.8,97.2-8.8c2.9,0.8,6.6,1.4,9.6,1.4h32.4c17.6,0,33.1-13.9,33.1-31.7c0-7.4-2.2-13.3-5.9-19.2
	c7.4-5.9,12.5-14.7,12.5-25c0-6.6-2.2-13.3-5.9-18.4C290.6,132.2,295.9,122.6,295.9,112.4L295.9,112.4z M232.5,57.1h25
	c6.6,0,11.8,5.1,11.8,11.8s-5.1,11.8-11.8,11.8h-25l0.8-20.6C232.5,59.4,232.5,57.9,232.5,57.1L232.5,57.1z M250.9,211.8H217
	c-6.6,0-11.8-5.1-11.8-11.8c0-6.6,5.1-11.8,11.8-11.8h33.9c6.6,0,11.8,5.1,11.8,11.8C262.7,205.9,257.5,211.8,250.9,211.8z
	 M256.8,167.6h-46.4c-6.6,0-11.8-5.1-11.8-11.8s5.1-11.8,11.8-11.8h46.4c6.6,0,11.8,5.1,11.8,11.8
	C269.3,162.5,263.4,167.6,256.8,167.6z M264.2,124.2H228c1.4-3.7,2.9-8.2,2.9-12.5v-11h33.1c6.6,0,11.8,5.1,11.8,11.8
	C275.9,118.9,270.8,124.2,264.2,124.2L264.2,124.2z"/>
<path d="M689.9,182h-39.7c-3.7,0-7.4,2.2-8.8,5.9c-19.2,46.4-100.9,33.9-131.8,29.5h-1.4c-16.2-2.2-29.5-3.7-41.9-3.7h-49.3
	c-6.6,0-11.8-5.1-11.8-11.8c0-6.6,5.1-11.8,11.8-11.8h71.4c5.1,0,10.3-4.5,10.3-10.3c0-5.1-4.5-9.6-10.3-9.6H374.9
	c-6.6,0-11.8-5.1-11.8-11.8c0-6.6,5.1-11.8,11.8-11.8h98.6c5.9,0,10.3-4.5,10.3-9.6c0-5.9-4.5-10.3-10.3-10.3H358.6
	c-6.6,0-11.8-5.1-11.8-11.8c0-6.6,5.1-11.8,11.8-11.8h106c5.9,0,10.3-4.5,10.3-10.3c0-5.1-4.5-9.6-10.3-9.6h-89.8
	c-6.6,0-11.8-5.1-11.8-11.8c0-6.6,5.1-11.8,11.8-11.8h86c5.9,6.6,14.7,9.6,23.5,9.6h25c18.4,69.2,78.8,62.6,79.6,62.6
	c5.1-0.8,8.8-5.1,8.8-9.6v-1.4c-0.8-5.1-5.9-9.6-11-8.8c-2.2,0-40.5,4.5-56-41.9c3.7,0,6.6,0.8,10.3,1.4l6.6,1.4
	c5.1,1.4,10.3-2.2,11.8-7.4c1.6-5.1-2.2-10.3-7.4-11.8l-6.6-1.4c-7.4-1.4-15.5-2.2-23.5-2.2H485c-3.7,0-6.6-1.4-8.8-3.7
	c-2.2-2.2-3.7-5.9-3.7-8.8c0-6.6,5.9-11.8,11.8-11.8l70.7-1.4c19.2-0.8,36.8,6.6,50.8,19.9l39.7,38.3c2.2,1.4,4.5,2.9,6.6,2.9h37.6
	c5.1,0,10.3-4.5,10.3-10.3c0-5.9-4.5-11-10.3-11h-33.9L619,28.4c-17.6-17-40.5-25.8-64.8-25l-71.4,1.4c-17,0.8-30.9,13.9-31.7,30.9
	v3.7h-76.5c-17,0-31.7,13.9-31.7,31.7c0,5.1,1.4,9.6,3.7,13.9c-11.8,4.5-19.9,16.2-19.9,29.5s8.2,24.3,19.9,29.5
	c-2.2,4.5-3.7,8.8-3.7,13.9c0,17.6,13.9,31.7,31.7,31.7h13.3c-1.4,3.7-2.2,7.4-2.2,11.8c0,17.6,13.9,31.7,31.7,31.7h49.3
	c11.8,0,24.3,0.8,39.1,2.9h1.4c33.9,5.1,120.7,17.6,149.5-35.4h33.1c5.1,0,10.3-4.5,10.3-10.3C700.1,186.5,695.7,182,689.9,182
	L689.9,182z"/>
</svg>
