<?xml version="1.0" encoding="utf-8"?>
<!-- Generator: Adobe Illustrator 25.2.1, SVG Export Plug-In . SVG Version: 6.00 Build 0)  -->
<svg version="1.1" id="Layer_1" xmlns="http://www.w3.org/2000/svg" xmlns:xlink="http://www.w3.org/1999/xlink" x="0px" y="0px"
	 viewBox="0 0 700 230.9" style="enable-background:new 0 0 700 230.9;" xml:space="preserve">
<path d="M515.5,28.9l41.4-5.1c17-2.2,33.2,2.9,45.7,14l44.3,39.1c1.4,1.4,3.7,2.2,6.6,2.2h36.9c5.1,0,9.6-4.5,9.6-9.6
	s-4.5-9.6-9.6-9.6h-33.1l-42-36.9c-17-14.8-39.1-21.3-61.2-18.4l-41.4,5.1c-14,1.4-25,9.6-31.7,20.7h-28.7c-14,0-26.6,8.2-31,21.3
	c-2.9,10.3-0.8,19.9,4.5,27.3c-7.4,5.9-12.5,14.8-12.5,25s5.1,19.2,12.5,24.4c-3.7,5.1-5.9,11.1-5.9,17.6c0,9.6,4.5,18.4,11.9,24.4
	c-3.7,5.1-5.9,11.1-5.9,18.4c0,17,15.5,31,32.4,31h32.4c3.7,0,6.6-0.8,9.6-1.4c33.2,7.4,69.3,8.8,94.4,8.8c24.4,0,47.1-12.5,59.8-34
	l2.9-4.5h33.2c5.1,0,9.6-4.5,9.6-9.6s-4.5-9.6-9.6-9.6h-39.1c-3.7,0-6.6,1.4-8.2,4.5L638,182c-9.6,15.5-25.8,24.4-43.5,24.4
	c-20.7,0-48.7-0.8-76-5.1c2.2-3.7,2.9-8.2,2.9-13.3c0-6.6-2.2-13.3-5.9-18.4c7.4-5.9,11.9-14.8,11.9-24.4c0-6.6-2.2-12.5-5.1-17
	c2.9-1.4,5.1-2.9,7.4-5.1c4.5-5.1,7.4-11.1,8.2-17.6c17.6,17,40.6,21.3,53.9,19.9c5.1-0.8,8.8-4.5,8.8-9.6v-0.8
	c-0.8-5.1-5.1-8.8-10.3-8.8c-1.4,0-34.6,2.9-50.8-31.7l11.1-1.4c5.1-0.8,8.8-5.9,8.2-11.1c-0.8-5.1-5.9-8.8-11.1-8.2l-22.1,2.9
	c-5.1,0.8-8.2,5.1-8.2,10.3l1.4,34c0,2.9-0.8,5.9-2.9,8.2c-2.2,2.2-5.1,3.7-8.2,3.7c-5.9,0-11.1-5.1-11.1-11.1l-0.8-50.2
	C494.9,41.4,503.8,30.3,515.5,28.9L515.5,28.9z M451.3,50.2h24.4v3.7l0.8,19.9h-24.4c-6.6,0-11.9-5.1-11.9-11.9
	C439.6,55.3,445.4,50.2,451.3,50.2L451.3,50.2z M432.9,104.1c0-6.6,5.1-11.9,11.9-11.9h31.7v11.1c0,4.5,1.4,8.2,2.9,12.5h-34.6
	C438,115.1,432.9,110,432.9,104.1L432.9,104.1z M490.5,199.9h-33.2c-6.6,0-11.9-5.1-11.9-11.9s5.1-11.9,11.9-11.9h33.2
	c6.6,0,11.9,5.1,11.9,11.9S497,199.9,490.5,199.9z M496.4,135c6.6,0,11.9,5.1,11.9,11.9c0,6.6-5.1,11.9-11.9,11.9h-45
	c-6.6,0-11.9-5.1-11.9-11.9c0-6.6,5.1-11.9,11.9-11.9H496.4z"/>
<path d="M355.5,99.1l-76-14l61.9-11.1c17-2.9,28.1-19.2,25-35.4c-2.9-17-19.2-28.1-36.1-25L220.5,32.9
	c-5.9-12.5-18.4-22.1-33.2-23.6l-41.4-5.1c-22.1-2.9-44.3,3.7-61.2,18.4l-42,36.9H9.6C4.5,59.5,0,64,0,69.1s4.5,9.6,9.6,9.6h36.9
	c2.2,0,4.5-0.8,6.6-2.2l44.3-39.1c12.5-11.1,29.5-16.2,45.7-14l41.4,5.1c11.9,1.4,20.7,11.9,20.7,23.6v0.8l-0.8,50.2
	c0,5.9-5.1,11.1-11.1,11.1c-2.9,0-5.9-1.4-8.2-3.7s-2.9-5.1-2.9-8.2l1.4-34c0-5.1-3.7-9.6-8.2-10.3l-22.1-2.9
	c-5.1-0.8-10.3,2.9-11.1,8.2c-0.8,5.1,2.9,10.3,8.2,11.1l11.1,1.4c-16.2,34-49.4,31.7-50.8,31.7c-5.1-0.8-10.3,3.7-10.3,8.8v0.8
	c0,5.1,3.7,8.8,8.8,9.6c13.3,1.4,36.1-2.2,53.9-19.9c0.8,6.6,3.7,12.5,8.2,17c2.2,2.2,5.1,4.5,8.2,5.9c-2.2,3.7-4.5,7.4-5.1,11.9
	c0,2.2-0.8,3.7-0.8,5.1c0,8.2,2.9,15.5,8.2,20.7c-4.5,4.5-8.2,10.3-8.8,17c0,1.4-0.8,3.7-0.8,5.1c0,4.5,0.8,8.8,2.9,13.3
	c-25,3.7-50.8,4.5-69.3,4.5c-17.6,0-34-9.6-43.5-24.4l-5.9-8.8c-1.4-2.9-5.1-4.5-8.2-4.5H9.7c-5.1,0-9.6,4.5-9.6,9.6
	s4.5,9.6,9.6,9.6h33.2l2.9,4.5c13.3,20.7,35.4,33.2,59.8,34c22.9,0,56.8-0.8,88.5-7.4c1.4,0.8,2.2,0.8,3.7,0.8l32.4,5.9
	c17,2.9,32.4-8.2,36.1-25c1.4-6.6,0-13.3-2.9-19.2c1.4-0.8,2.2-1.4,3.7-2.2c6.6-4.5,11.1-11.9,12.5-19.9c0.8-3.7,0.8-8.2,0-11.9
	l64.9,11.1c8.2,1.4,16.2,0,22.9-5.1c6.6-4.5,11.1-11.9,12.5-19.9c1.4-8,0-16.2-5.1-22.9C371,105,363.6,100.7,355.5,99.1L355.5,99.1z
	 M224.9,52l109.2-19.2c5.9-1.4,12.5,2.9,13.3,9.6v2.2c0,5.1-3.7,10.3-9.6,11.1L224.9,75.5l0.8-22.1C224.9,52.8,224.9,52,224.9,52
	L224.9,52z M247.9,197.2c-0.8,2.9-2.2,5.9-4.5,7.4c-2.2,1.4-5.9,2.2-8.8,2.2l-32.4-5.9c-2.9-0.8-5.9-2.2-7.4-4.5
	c-1.4-2.2-2.2-5.9-2.2-8.8c0.8-2.9,2.2-5.9,4.5-7.4c2.2-1.4,5.9-2.2,8.8-2.2l32.4,5.9C244.2,184.7,248.5,191.3,247.9,197.2
	L247.9,197.2z M261,156.7c-0.8,2.9-2.2,5.9-4.5,7.4c-2.2,1.4-5.9,2.2-8.8,2.2l-44.3-8.2c-2.9-0.8-5.9-2.2-7.4-4.5
	c-1.4-2.2-2.2-5.9-2.2-8.8c0.8-5.9,7.4-10.3,13.3-9.6l44.3,8.2c2.9,0.8,5.9,2.2,7.4,4.5s2.2,4.5,2.2,6.6V156.7L261,156.7z
	 M356.9,139c-2.2,1.4-5.9,2.2-8.8,2.2L219,118.3c2.9-4.5,4.5-9.6,4.5-14.8v-7.4l128.3,22.9c2.9,0.8,5.9,2.2,7.4,4.5s2.2,5.9,2.2,8.8
	C361.4,134.5,359.2,136.8,356.9,139L356.9,139z"/>
</svg>
