<?xml version="1.0" encoding="utf-8"?>
<!-- Generator: Adobe Illustrator 25.2.1, SVG Export Plug-In . SVG Version: 6.00 Build 0)  -->
<svg version="1.1" id="Layer_1" xmlns="http://www.w3.org/2000/svg" xmlns:xlink="http://www.w3.org/1999/xlink" x="0px" y="0px"
	 viewBox="0 0 700 700" style="enable-background:new 0 0 700 700;" xml:space="preserve">
<path d="M1269.4,793.9l3.9,31.4c1.7,12.9-2.2,25.2-10.6,34.7l-29.7,33.6c-1.1,1.1-1.7,2.8-1.7,5v28c0,3.9,3.4,7.3,7.3,7.3
	c3.9,0,7.3-3.4,7.3-7.3v-25.2l28-31.9c11.2-12.9,16.2-29.7,14-46.5l-3.9-31.4c-1.1-10.6-7.3-19-15.7-24.1v-21.8
	c0-10.6-6.2-20.2-16.2-23.5c-7.8-2.2-15.1-0.6-20.7,3.4c-4.5-5.6-11.2-9.5-19-9.5s-14.6,3.9-18.5,9.5c-3.9-2.8-8.4-4.5-13.4-4.5
	c-7.3,0-14,3.4-18.5,9c-3.9-2.8-8.4-4.5-14-4.5c-12.9,0-23.5,11.8-23.5,24.6v24.6c0,2.8,0.6,5,1.1,7.3c-5.6,25.2-6.7,52.6-6.7,71.7
	c0,18.5,9.5,35.8,25.8,45.4l3.4,2.2v25.2c0,3.9,3.4,7.3,7.3,7.3c3.9,0,7.3-3.4,7.3-7.3v-29.7c0-2.8-1.1-5-3.4-6.2l-6.2-3.9
	c-11.8-7.3-18.5-19.6-18.5-33c0-15.7,0.6-37,3.9-57.7c2.8,1.7,6.2,2.2,10.1,2.2c5,0,10.1-1.7,14-4.5c4.5,5.6,11.2,9,18.5,9
	c5,0,9.5-1.7,12.9-3.9c1.1,2.2,2.2,3.9,3.9,5.6c3.9,3.4,8.4,5.6,13.4,6.2c-12.9,13.4-16.2,30.8-15.1,40.9c0.6,3.9,3.4,6.7,7.3,6.7
	l0.6,0c3.9-0.6,6.7-3.9,6.7-7.8c0-1.1-2.2-26.3,24.1-38.6l1.1,8.4c0.6,3.9,4.5,6.7,8.4,6.2c3.9-0.6,6.7-4.5,6.2-8.4l-2.2-16.8
	c-0.6-3.9-3.9-6.2-7.8-6.2l-25.8,1.1c-2.2,0-4.5-0.6-6.2-2.2s-2.8-3.9-2.8-6.2c0-4.5,3.9-8.4,8.4-8.4l38.1-0.6
	C1259.9,778.2,1268.3,784.9,1269.4,793.9L1269.4,793.9z M1253.2,745.1v18.5h-2.8l-15.1,0.6v-18.5c0-5,3.9-9,9-9
	C1249.3,736.2,1253.2,740.7,1253.2,745.1L1253.2,745.1z M1212.3,731.1c5,0,9,3.9,9,9v24.1h-8.4c-3.4,0-6.2,1.1-9.5,2.2v-26.3
	C1203.9,735.1,1207.8,731.1,1212.3,731.1L1212.3,731.1z M1139.5,774.8v-25.2c0-5,3.9-9,9-9c5,0,9,3.9,9,9l0,25.2c0,5-3.9,9-9,9
	C1143.4,783.8,1139.5,779.9,1139.5,774.8z M1188.8,779.3c0,5-3.9,9-9,9s-9-3.9-9-9v-34.2c0-5,3.9-9,9-9c5,0,9,3.9,9,9V779.3z"/>
<path d="M320.8,45.8L295,185.6l-20.4-114c-5.4-31.2-35.3-51.6-65.1-46.1c-31.2,5.4-51.6,35.3-46.1,66.5l35.3,202.2
	c-23.1,10.9-40.7,33.9-43.4,61.1l-9.5,76c-5.4,40.7,6.8,81.4,33.9,112.7l67.9,77.4v61.1c0,9.5,8.1,17.6,17.6,17.6
	c9.5,0,17.6-8.1,17.6-17.6v-67.9c0-4.1-1.4-8.1-4.1-12.2l-71.9-81.4c-20.4-23.1-29.9-54.3-25.8-84.1l9.5-76
	c2.7-21.7,21.7-38,43.4-38h1.4l92.3,1.4c10.9,0,20.4,9.5,20.4,20.4c0,5.4-2.7,10.9-6.8,14.9c-4.1,4.1-9.5,5.4-14.9,5.4l-62.4-2.7
	c-9.5,0-17.6,6.8-19,14.9l-5.4,40.7c-1.4,9.5,5.4,19,14.9,20.4c9.5,1.4,19-5.4,20.4-14.9l2.7-20.4c62.4,29.9,58.4,90.9,58.4,93.7
	c-1.4,9.5,6.8,19,16.3,19h1.4c9.5,0,16.3-6.8,17.6-16.3c2.7-24.4-4.1-66.5-36.6-99.1c12.2-1.4,23.1-6.8,31.2-14.9
	c4.1-4.1,8.1-9.5,10.9-14.9c6.8,4.1,13.6,8.1,21.7,9.5c4.1,0,6.8,1.4,9.5,1.4c14.9,0,28.5-5.4,38-14.9c8.1,8.1,19,14.9,31.2,16.3
	c2.7,0,6.8,1.4,9.5,1.4c8.1,0,16.3-1.4,24.4-5.4c6.8,46.1,8.1,93.7,8.1,127.6c0,32.6-17.6,62.4-44.8,80.1l-16.3,10.9
	c-5.4,2.7-8.1,9.5-8.1,14.9l0,70.6c0,9.5,8.1,17.6,17.6,17.6s17.6-8.1,17.6-17.6v-61.1l8.1-5.4c38-24.4,61.1-65.1,62.4-109.9
	c0-42.1-1.4-104.5-13.6-162.9c1.4-2.7,1.4-4.1,1.4-6.8l10.9-59.7c5.4-31.2-14.9-59.7-46.1-66.5c-12.2-2.7-24.4,0-35.3,5.4
	c-1.4-2.7-2.7-4.1-4.1-6.8c-8.1-12.2-21.7-20.4-36.6-23.1c-6.8-1.4-14.9-1.4-21.7,0l20.4-119.4c2.7-14.9,0-29.9-9.5-42.1
	C413.1,11.9,399.5,3.7,384.6,1c-14.9-2.7-29.9,0-42.1,9.5C331.6,17.3,323.5,30.9,320.8,45.8L320.8,45.8z M233.9,286L198.6,85.2
	c-2.7-10.9,5.4-23.1,17.6-24.4h4.1c9.5,0,19,6.8,20.4,17.6L277.3,286l-40.7-1.4C235.3,286,233.9,286,233.9,286L233.9,286z
	 M501.3,244c5.4,1.4,10.9,4.1,13.6,8.1c2.7,4.1,4.1,10.9,4.1,16.3l-10.9,59.7c-1.4,5.4-4.1,10.9-8.1,13.6
	c-4.1,2.7-10.9,4.1-16.3,4.1c-5.4-1.4-10.9-4.1-13.6-8.1c-2.7-4.1-4.1-10.9-4.1-16.3l10.9-59.7C478.2,250.7,490.4,242.6,501.3,244
	L501.3,244z M426.6,219.5c5.4,1.4,10.9,4.1,13.6,8.1c2.7,4.1,4.1,10.9,4.1,16.3l-14.9,81.4c-1.4,5.4-4.1,10.9-8.1,13.6
	c-4.1,2.7-10.9,4.1-16.3,4.1c-10.9-1.4-19-13.6-17.6-24.4l14.9-81.4c1.4-5.4,4.1-10.9,8.1-13.6c4.1-2.7,8.1-4.1,12.2-4.1
	L426.6,219.5L426.6,219.5z M394.1,43.1c2.7,4.1,4.1,10.9,4.1,16.3l-42.1,237.5c-8.1-5.4-17.6-8.1-27.1-8.1h-13.6l42.1-236.2
	c1.4-5.4,4.1-10.9,8.1-13.6c4.1-2.7,10.9-4.1,16.3-4.1C385.9,34.9,390,39,394.1,43.1L394.1,43.1z"/>
<path d="M1084.7,191.5c-2.8-1.7-6.2-2.2-9.5-2.2c-11.8,0-21.3,9.5-21.3,21.3v51h-2.2c-11.2,0.6-20.2,9.5-20.7,20.7l-1.1,47
	c-0.6,16.2,5.6,31.4,16.8,43.1l23.5,24.6v22.4c0,3.9,2.8,6.7,6.7,6.7c3.9,0,6.7-2.8,6.7-6.7v-25.2c0-1.7-0.6-3.4-1.7-4.5l-25.2-26.9
	c-9-9-13.4-21.3-12.9-33.6l1.1-47c0-4.5,3.4-7.8,7.8-7.8c2.2,0,4.5,0.6,6.2,2.2c1.7,1.7,2.8,3.9,2.8,6.2v24.1c0,5,0.6,10.6,1.7,15.7
	l1.1,4.5c0.6,3.4,4.5,5.6,7.8,5c3.4-0.6,5.6-4.5,5-7.8l-1.1-4.5c-0.6-2.2-0.6-4.5-1.1-6.7c30.8,10.1,28,35.8,28,37
	c-0.6,3.4,2.2,6.7,5.6,7.3h1.1c3.4,0,6.2-2.2,6.7-5.6c0-0.6,4.5-40.3-41.4-52.6v-16.2c0-6.2-2.2-11.2-6.7-15.7V210
	c0-4.5,3.4-7.8,7.8-7.8c4.5,0,7.8,3.4,7.8,7.8v59.9c0,3.9,2.8,6.7,6.7,6.7c3.9,0,6.7-2.8,6.7-6.7v-70.6c0-4.5,3.4-7.8,7.8-7.8
	c4.5,0,7.8,3.4,7.8,7.8l0,76.7c0,3.9,2.8,6.7,6.7,6.7c3.4,0,6.7-2.8,6.7-6.7v-65.5c0-4.5,3.4-7.8,7.8-7.8c4.5,0,7.8,3.4,7.8,7.8v75
	c0,3.9,2.8,6.7,6.7,6.7c3.9,0,6.7-2.8,6.7-6.7V238c0-4.5,3.4-7.8,7.8-7.8c4.5,0,7.8,3.4,7.8,7.8v32.5c0,8.4,0.6,17.4,2.2,28v1.1
	c2.8,20.2,11.2,74.5-19.6,87.4c-3.9,1.1-5.6,3.4-5.6,6.2v26.3c0,3.4,2.8,6.7,6.7,6.7c3.9,0,6.7-2.8,6.7-6.7V397
	c35.3-19,26.9-77.3,23.5-99.7v-1.1c-1.7-10.1-2.2-18.5-2.2-26.3v-32.5c0-11.8-9.5-21.3-21.3-21.3c-2.8,0-5.6,0.6-7.8,1.7v-8.4
	c0-11.8-9.5-21.3-21.3-21.3c-3.4,0-6.7,1.1-9.5,2.2c-3.4-7.8-10.6-13.4-19.6-13.4C1095.3,178,1087.5,183.6,1084.7,191.5
	L1084.7,191.5z"/>
</svg>
